HIERARCHY
ROOT hip
{
  OFFSET 0 0 0
  CHANNELS 6 Xposition Yposition Zposition Zrotation Yrotation Xrotation
  JOINT abdomen
  {
    OFFSET 0 20.6881 -0.73152
    CHANNELS 3 Zrotation Xrotation Yrotation
    JOINT chest
    {
      OFFSET 0 11.7043 -0.48768
      CHANNELS 3 Zrotation Xrotation Yrotation
      JOINT neck
      {
        OFFSET 0 22.1894 -2.19456
        CHANNELS 3 Zrotation Xrotation Yrotation
        JOINT head
        {
          OFFSET -0.24384 7.07133 1.2192
          CHANNELS 3 Zrotation Xrotation Yrotation
          JOINT leftEye
          {
            OFFSET 4.14528 8.04674 8.04672
            CHANNELS 3 Zrotation Xrotation Yrotation
            End Site
            {
              OFFSET 1 0 0
            }
          }
          JOINT rightEye
          {
            OFFSET -3.6576 8.04674 8.04672
            CHANNELS 3 Zrotation Xrotation Yrotation
            End Site
            {
              OFFSET 1 0 0
            }
          }
        }
      }
      JOINT rCollar
      {
        OFFSET -2.68224 19.2634 -4.8768
        CHANNELS 3 Zrotation Xrotation Yrotation
        JOINT rShldr
        {
          OFFSET -8.77824 -1.95073 1.46304
          CHANNELS 3 Zrotation Xrotation Yrotation
          JOINT rForeArm
          {
            OFFSET -28.1742 -1.7115 0.48768
            CHANNELS 3 Zrotation Xrotation Yrotation
            JOINT rHand
            {
              OFFSET -22.5879 0.773209 7.07136
              CHANNELS 3 Zrotation Xrotation Yrotation
              JOINT rThumb1
              {
                OFFSET -1.2192 -0.487915 3.41376
                CHANNELS 3 Zrotation Xrotation Yrotation
                JOINT rThumb2
                {
                  OFFSET -3.37035 -0.52449 3.41376
                  CHANNELS 3 Zrotation Xrotation Yrotation
                  End Site
                  {
                    OFFSET -1.78271 -1.18214 1.43049
                  }
                }
              }
              JOINT rIndex1
              {
                OFFSET -7.75947 0.938293 5.60832
                CHANNELS 3 Zrotation Xrotation Yrotation
                JOINT rIndex2
                {
                  OFFSET -2.54057 -0.884171 1.56538
                  CHANNELS 3 Zrotation Xrotation Yrotation
                  End Site
                  {
                    OFFSET -1.62519 -0.234802 1.16502
                  }
                }
              }
              JOINT rMid1
              {
                OFFSET -8.24714 1.18213 3.41376
                CHANNELS 3 Zrotation Xrotation Yrotation
                JOINT rMid2
                {
                  OFFSET -3.10165 -0.590103 1.0647
                  CHANNELS 3 Zrotation Xrotation Yrotation
                  End Site
                  {
                    OFFSET -2.48547 -0.328903 0.83742
                  }
                }
              }
              JOINT rRing1
              {
                OFFSET -8.82822 0.546677 1.51678
                CHANNELS 3 Zrotation Xrotation Yrotation
                JOINT rRing2
                {
                  OFFSET -2.60934 -0.819778 -0.0198488
                  CHANNELS 3 Zrotation Xrotation Yrotation
                  End Site
                  {
                    OFFSET -2.33842 -0.294052 0.168128
                  }
                }
              }
              JOINT rPinky1
              {
                OFFSET -8.27202 -0.0477905 -0.4584
                CHANNELS 3 Zrotation Xrotation Yrotation
                JOINT rPinky2
                {
                  OFFSET -1.82734 -0.647385 -0.700984
                  CHANNELS 3 Zrotation Xrotation Yrotation
                  End Site
                  {
                    OFFSET -1.69225 -0.51767 -0.607171
                  }
                }
              }
            }
          }
        }
      }
      JOINT lCollar
      {
        OFFSET 2.68224 19.2634 -4.8768
        CHANNELS 3 Zrotation Xrotation Yrotation
        JOINT lShldr
        {
          OFFSET 8.77824 -1.95073 1.46304
          CHANNELS 3 Zrotation Xrotation Yrotation
          JOINT lForeArm
          {
            OFFSET 28.1742 -1.7115 0.48768
            CHANNELS 3 Zrotation Xrotation Yrotation
            JOINT lHand
            {
              OFFSET 22.5879 0.773209 7.07136
              CHANNELS 3 Zrotation Xrotation Yrotation
              JOINT lThumb1
              {
                OFFSET 1.2192 -0.487915 3.41376
                CHANNELS 3 Zrotation Xrotation Yrotation
                JOINT lThumb2
                {
                  OFFSET 3.37035 -0.52449 3.41376
                  CHANNELS 3 Zrotation Xrotation Yrotation
                  End Site
                  {
                    OFFSET 1.78271 -1.18214 1.43049
                  }
                }
              }
              JOINT lIndex1
              {
                OFFSET 7.75947 0.938293 5.60832
                CHANNELS 3 Zrotation Xrotation Yrotation
                JOINT lIndex2
                {
                  OFFSET 2.54057 -0.884171 1.56538
                  CHANNELS 3 Zrotation Xrotation Yrotation
                  End Site
                  {
                    OFFSET 1.62519 -0.234802 1.16502
                  }
                }
              }
              JOINT lMid1
              {
                OFFSET 8.24714 1.18213 3.41376
                CHANNELS 3 Zrotation Xrotation Yrotation
                JOINT lMid2
                {
                  OFFSET 3.10165 -0.590103 1.0647
                  CHANNELS 3 Zrotation Xrotation Yrotation
                  End Site
                  {
                    OFFSET 2.48547 -0.328903 0.83742
                  }
                }
              }
              JOINT lRing1
              {
                OFFSET 8.82822 0.546677 1.51678
                CHANNELS 3 Zrotation Xrotation Yrotation
                JOINT lRing2
                {
                  OFFSET 2.60934 -0.819778 -0.0198488
                  CHANNELS 3 Zrotation Xrotation Yrotation
                  End Site
                  {
                    OFFSET 2.33842 -0.294052 0.168128
                  }
                }
              }
              JOINT lPinky1
              {
                OFFSET 8.27202 -0.0477905 -0.4584
                CHANNELS 3 Zrotation Xrotation Yrotation
                JOINT lPinky2
                {
                  OFFSET 1.82734 -0.647385 -0.700984
                  CHANNELS 3 Zrotation Xrotation Yrotation
                  End Site
                  {
                    OFFSET 1.69225 -0.51767 -0.607171
                  }
                }
              }
            }
          }
        }
      }
    }
  }
  JOINT rButtock
  {
    OFFSET -8.77824 4.35084 1.2192
    CHANNELS 3 Zrotation Xrotation Yrotation
    JOINT rThigh
    {
      OFFSET 0 -1.70687 -2.19456
      CHANNELS 3 Zrotation Xrotation Yrotation
      JOINT rShin
      {
        OFFSET 0 -36.8199 0.73152
        CHANNELS 3 Zrotation Xrotation Yrotation
        JOINT rFoot
        {
          OFFSET 0.73152 -45.1104 -5.12064
          CHANNELS 3 Zrotation Xrotation Yrotation
          End Site
          {
            OFFSET -1.1221 -3.69964 12.103
          }
        }
      }
    }
  }
  JOINT lButtock
  {
    OFFSET 8.77824 4.35084 1.2192
    CHANNELS 3 Zrotation Xrotation Yrotation
    JOINT lThigh
    {
      OFFSET 0 -1.70687 -2.19456
      CHANNELS 3 Zrotation Xrotation Yrotation
      JOINT lShin
      {
        OFFSET 0 -36.8199 0.73152
        CHANNELS 3 Zrotation Xrotation Yrotation
        JOINT lFoot
        {
          OFFSET -0.73152 -45.1104 -5.12064
          CHANNELS 3 Zrotation Xrotation Yrotation
          End Site
          {
            OFFSET 1.1221 -3.69964 12.103
          }
        }
      }
    }
  }
}
MOTION
Frames:	6
Frame Time:	0.00833333
0.409942 84.9173 -161.297 0.0 0.0 0.0 -0.140625 -0.000295017 -0.00400525 -0.0387669 -0.000394552 -0.00671563 1.08354e-15 -2.38542e-15 -4.03781e-17 3.15881e-15 -6.36111e-15 -1.13369e-16 -0.0 0.0 0.0 -0.0 0.0 0.0 4.95654e-16 3.88251e-19 1.98785e-16 1.38877e-14 1.49089e-16 3.97569e-16 1.86162e-13 -5.78463e-14 3.18055e-15 2.1771e-12 5.02428e-14 -9.22361e-14 5.12701e-12 -2.08732e-14 -1.87653e-13 8.84353e-12 -3.81667e-14 -3.22826e-13 5.13183e-12 -1.82882e-14 -2.00375e-13 7.73091 5.47488 0.417314 5.12676e-12 -2.14687e-14 -1.78111e-13 2.90554 0.965183 0.102902 5.13449e-12 -2.0276e-14 -1.84472e-13 10.2786 0.731801 0.0259123 5.12109e-12 -1.86858e-14 -1.7175e-13 2.22167 -0.733487 -0.20892 4.98305e-16 0.0 -1.98785e-16 8.38254e-15 1.30452e-16 -1.19271e-15 1.9138e-13 5.74488e-14 -2.22639e-14 2.17433e-12 -5.39203e-14 -5.08889e-14 5.13347e-12 5.93467e-15 -1.74931e-13 8.87415e-12 6.36111e-15 -3.07719e-13 5.12705e-12 6.75868e-15 -1.78111e-13 -7.73091 5.47488 -0.417314 5.13431e-12 5.96354e-15 -1.81292e-13 -2.90554 0.965183 -0.102902 5.12836e-12 6.26172e-15 -1.79701e-13 -10.2786 0.731801 -0.0259123 5.14037e-12 7.15625e-15 -1.94014e-13 -2.22167 -0.733487 0.20892 -2.03217e-16 0.0 -3.88251e-19 0.415451 -2.89234 -0.0363694 -0.00657578 -0.313961 -0.0578453 -0.521683 3.20536 0.125418 2.03217e-16 0.0 3.88251e-19 -0.629354 -3.43714 0.0497312 0.0049779 0.672914 0.0432306 0.523145 2.76331 -0.116511
3.6784 83.6213 -163.653 1.6709 35.374 3.0559 0.100981 0.090077 5.98952 0.788862 -0.56342 1.71368 7.13549 4.50317 4.36449 -10.1976 0.725775 9.64215 -0.0 0.0 0.0 -0.0 0.0 0.0 -9.19659e-17 1.03951e-14 -1.58135e-15 19.6565 5.56203 1.11833 -3.73035 -1.60788 5.91774 0.0166113 -2.86201 -0.400424 1.85172e-10 5.78213e-10 -2.69204e-10 3.22383e-10 1.00048e-09 -4.64736e-10 1.85176e-10 5.78216e-10 -2.69216e-10 7.73091 5.47488 0.417314 1.85171e-10 5.78218e-10 -2.69197e-10 2.90554 0.965183 0.102902 1.8518e-10 5.78214e-10 -2.692e-10 10.2786 0.731801 0.0259123 1.85167e-10 5.78215e-10 -2.69187e-10 2.22167 -0.733487 -0.20892 -8.78457e-17 1.04031e-14 -1.89738e-15 -21.5781 4.12831 0.309781 3.55181 -1.50046 -5.66463 -0.0068726 -1.8463 0.259001 3.59189e-10 -2.26046e-10 -2.03666e-10 6.23007e-10 -3.91515e-10 -3.51607e-10 3.59184e-10 -2.26045e-10 -2.03667e-10 -7.73091 5.47488 -0.417314 3.5919e-10 -2.26046e-10 -2.03673e-10 -2.90554 0.965183 -0.102902 3.59183e-10 -2.26046e-10 -2.0367e-10 -10.2786 0.731801 -0.0259123 3.59194e-10 -2.26045e-10 -2.03682e-10 -2.22167 -0.733487 0.20892 -2.03217e-16 0.0 -3.88251e-19 -0.54181 -3.01351 -3.33238 0.0199287 6.27427 0.0977696 -1.55971 -1.08858 -9.89942 2.03217e-16 0.0 3.88251e-19 -0.211399 -6.66892 -3.15676 0.00333366 6.99151 -0.0381919 0.440276 0.157322 -0.5635
3.68118 83.6322 -163.661 1.6634 35.2106 2.9247 0.331165 0.171693 12.33 1.72996 -1.14425 3.53468 13.9035 9.15588 9.0716 -21.2459 1.46522 19.8573 -0.0 0.0 0.0 -0.0 0.0 0.0 -1.25294e-15 2.49388e-14 -5.05348e-15 40.1659 11.464 2.35389 -7.32578 -3.25755 12.2061 -0.00959851 -5.90082 -0.828993 3.85746e-10 1.2122e-09 -5.6777e-10 6.7162e-10 2.09745e-09 -9.80142e-10 3.85749e-10 1.21221e-09 -5.67782e-10 7.73091 5.47488 0.417314 3.85744e-10 1.21221e-09 -5.67766e-10 2.90554 0.965183 0.102902 3.85755e-10 1.2122e-09 -5.67765e-10 10.2786 0.731801 0.0259123 3.85742e-10 1.2122e-09 -5.67751e-10 2.22167 -0.733487 -0.20892 -1.24758e-15 2.49562e-14 -5.28332e-15 -44.4682 8.43992 0.639083 6.97895 -3.03343 -11.6547 0.0040458 -3.77912 0.531053 7.56735e-10 -4.74026e-10 -4.18239e-10 1.31247e-09 -8.20984e-10 -7.21949e-10 7.56732e-10 -4.74025e-10 -4.18237e-10 -7.73091 5.47488 -0.417314 7.56736e-10 -4.74026e-10 -4.18247e-10 -2.90554 0.965183 -0.102902 7.56728e-10 -4.74025e-10 -4.18243e-10 -10.2786 0.731801 -0.0259123 7.56738e-10 -4.74025e-10 -4.18251e-10 -2.22167 -0.733487 0.20892 -2.03217e-16 0.0 -3.88251e-19 -1.56624 -3.13314 -6.81936 0.00815877 13.2374 0.268215 -4.26273 -5.30377 -20.5887 2.03217e-16 0.0 3.88251e-19 -0.165951 -10.0464 -6.60297 0.0216157 13.6706 -0.127238 0.307727 -2.597 -1.04325
3.69419 83.6419 -163.69 1.7516 35.0404 2.873 0.528505 0.259011 17.9767 2.54544 -1.68339 5.15645 19.3212 13.1922 13.4133 -31.2914 1.93292 28.9421 -0.0 0.0 0.0 -0.0 0.0 0.0 -1.26721e-15 3.11844e-14 -5.14161e-15 58.2941 16.6601 3.48569 -10.2096 -4.61821 17.8059 -0.0713249 -8.58435 -1.21337 5.45262e-10 1.73468e-09 -8.07237e-10 9.49462e-10 3.00152e-09 -1.39356e-09 5.45265e-10 1.73469e-09 -8.07248e-10 7.73091 5.47488 0.417314 5.45259e-10 1.7347e-09 -8.07235e-10 2.90554 0.965183 0.102902 5.45272e-10 1.73468e-09 -8.07231e-10 10.2786 0.731801 0.0259123 5.45259e-10 1.73468e-09 -8.07216e-10 2.22167 -0.733487 -0.20892 -1.26015e-15 3.12092e-14 -5.29458e-15 -64.8708 12.3835 0.949013 9.77773 -4.32571 -17.0381 0.0296567 -5.53844 0.780241 1.0673e-09 -6.78151e-10 -6.10648e-10 1.85127e-09 -1.17456e-09 -1.05421e-09 1.0673e-09 -6.7815e-10 -6.10644e-10 -7.73091 5.47488 -0.417314 1.0673e-09 -6.78151e-10 -6.10656e-10 -2.90554 0.965183 -0.102902 1.06729e-09 -6.7815e-10 -6.10651e-10 -10.2786 0.731801 -0.0259123 1.0673e-09 -6.7815e-10 -6.10657e-10 -2.22167 -0.733487 0.20892 -2.03217e-16 0.0 -3.88251e-19 -2.49744 -3.22226 -9.9265 -0.0394574 19.4503 0.431889 -7.96975 -8.41746 -30.3034 2.03217e-16 0.0 3.88251e-19 -0.480273 -12.9787 -9.75701 0.0564767 19.6286 -0.212529 0.152207 -5.05301 -1.46343
3.7157 83.6553 -163.69 1.6867 34.9303 2.6798 0.672248 0.368674 21.8891 2.97888 -2.12382 6.27848 22.8311 15.9874 16.5426 -38.289 1.98809 35.1831 -0.0 0.0 0.0 -0.0 0.0 0.0 1.5853e-15 1.66843e-14 3.23025e-15 70.9782 20.1185 4.22592 -12.0117 -5.45684 21.6326 -0.134032 -10.3813 -1.47534 6.02136e-10 1.97839e-09 -8.98955e-10 1.04882e-09 3.42334e-09 -1.55201e-09 6.02138e-10 1.9784e-09 -8.98968e-10 7.73091 5.47488 0.417314 6.02133e-10 1.97841e-09 -8.98955e-10 2.90554 0.965183 0.102902 6.02146e-10 1.97839e-09 -8.9895e-10 10.2786 0.731801 0.0259123 6.02133e-10 1.97839e-09 -8.98936e-10 2.22167 -0.733487 -0.20892 1.59521e-15 1.67115e-14 3.13086e-15 -78.9628 15.4082 1.19357 11.6129 -5.18085 -20.8631 0.0581423 -6.86441 0.969419 1.16042e-09 -7.72639e-10 -7.47647e-10 2.01341e-09 -1.33838e-09 -1.29125e-09 1.16041e-09 -7.72639e-10 -7.4764e-10 -7.73091 5.47488 -0.417314 1.16042e-09 -7.7264e-10 -7.47653e-10 -2.90554 0.965183 -0.102902 1.16041e-09 -7.72639e-10 -7.47649e-10 -10.2786 0.731801 -0.0259123 1.16042e-09 -7.72639e-10 -7.47653e-10 -2.22167 -0.733487 0.20892 -2.03217e-16 0.0 -3.88251e-19 -3.16537 -3.2604 -12.0825 -0.095691 23.7878 0.556274 -11.1836 -10.0572 -37.1743 2.03217e-16 0.0 3.88251e-19 -0.905711 -14.937 -12.0169 0.0921646 23.7839 -0.277326 0.0283327 -6.76497 -1.72752
3.74286 83.667 -163.697 1.6816 34.8181 2.5485 0.759507 0.528504 23.3861 2.78959 -2.4528 6.70234 24.4028 17.2633 17.7584 -40.8472 1.66092 37.4213 -0.0 0.0 0.0 -0.0 0.0 0.0 8.70334e-15 -3.34794e-14 3.10496e-14 76.3253 21.1769 4.31121 -12.5914 -5.70076 22.9464 -0.159862 -10.9706 -1.56241 5.28766e-10 1.81855e-09 -7.63087e-10 9.2153e-10 3.14713e-09 -1.3177e-09 5.28768e-10 1.81855e-09 -7.63103e-10 7.73091 5.47488 0.417314 5.28764e-10 1.81856e-09 -7.63088e-10 2.90554 0.965183 0.102902 5.28776e-10 1.81854e-09 -7.63084e-10 10.2786 0.731801 0.0259123 5.28762e-10 1.81855e-09 -7.63073e-10 2.22167 -0.733487 -0.20892 8.71911e-15 -3.34581e-14 3.09712e-14 -84.121 17.2109 1.34841 12.3607 -5.54 -22.487 0.0761066 -7.62058 1.0778 9.4893e-10 -7.11446e-10 -8.36443e-10 1.64811e-09 -1.23283e-09 -1.44585e-09 9.48928e-10 -7.11447e-10 -8.36435e-10 -7.73091 5.47488 -0.417314 9.4893e-10 -7.11448e-10 -8.36446e-10 -2.90554 0.965183 -0.102902 9.48921e-10 -7.11446e-10 -8.36444e-10 -10.2786 0.731801 -0.0259123 9.48931e-10 -7.11447e-10 -8.36448e-10 -2.22167 -0.733487 0.20892 -2.03217e-16 0.0 -3.88251e-19 -3.45607 -3.23058 -12.911 -0.123186 25.5038 0.60802 -12.545 -10.5531 -39.8455 2.03217e-16 0.0 3.88251e-19 -1.13464 -15.6157 -12.93 0.108622 25.4172 -0.304783 -0.0111842 -7.43736 -1.76446
